# xmcd
#
# Track frame offsets:
#	182
#	13437
#	24870
#	36480
#	49872
#	62165
#	76782
#	86007
#	97210
#	106500
#
# Disc length: 1581 seconds
#
# Revision: 0
# Processed by: cddbd v1.5.2PL0 Copyright (c) Steve Scherf et al.
# Submitted via: EasyCDDAExtractor 16.0.8.1
#
DISCID=79062b0a
DTITLE=Jerry Lee Lewis - Whole Lot of Shaking Going On
DYEAR=1999
DGENRE=Country
TTITLE0=Crazy
TTITLE1=Sweet Dreams (Of You)
TTITLE2=She's Got You
TTITLE3=I Fall to Pieces
TTITLE4=Walkin' After Midnight
TTITLE5=Coal Miner's Daughter
TTITLE6=You Ain't Woman Enough (To Take My Man)
TTITLE7=The Pill
TTITLE8=Don't Come Home Drinkin' (With Lovin' on Your Mind)
TTITLE9=One's on the Way
EXTD=
EXTT0=
EXTT1=
EXTT2=
EXTT3=
EXTT4=
EXTT5=
EXTT6=
EXTT7=
EXTT8=
EXTT9=
PLAYORDER=
